<mxfile host="Electron" modified="2025-07-18T07:52:18.350Z" agent="Mozilla/5.0 (Windows NT 10.0; Win64; x64) AppleWebKit/537.36 (KHTML, like Gecko) draw.io/23.1.5 Chrome/120.0.6099.109 Electron/28.1.0 Safari/537.36" etag="FzlutvwPveR18yxhheYv" version="23.1.5" type="device">
  <diagram name="Page-1" id="CAedLmJj9bR33iTFoqzm">
    <mxGraphModel dx="2590" dy="1638" grid="1" gridSize="10" guides="1" tooltips="1" connect="1" arrows="1" fold="1" page="0" pageScale="1" pageWidth="827" pageHeight="1169" math="0" shadow="0">
      <root>
        <mxCell id="0" />
        <mxCell id="1" parent="0" />
        <mxCell id="rQ5N3RbR9E7FUs8ajaMf-12" style="edgeStyle=orthogonalEdgeStyle;rounded=0;orthogonalLoop=1;jettySize=auto;html=1;exitX=1;exitY=0.5;exitDx=0;exitDy=0;exitPerimeter=0;entryX=0;entryY=0.5;entryDx=0;entryDy=0;" parent="1" source="rQ5N3RbR9E7FUs8ajaMf-9" target="rQ5N3RbR9E7FUs8ajaMf-10" edge="1">
          <mxGeometry relative="1" as="geometry" />
        </mxCell>
        <mxCell id="rQ5N3RbR9E7FUs8ajaMf-9" value="Mulai" style="strokeWidth=1;html=1;shape=mxgraph.flowchart.terminator;whiteSpace=wrap;rounded=1;strokeColor=default;align=center;verticalAlign=middle;arcSize=14;fontFamily=Helvetica;fontSize=12;fontColor=default;fillColor=default;" parent="1" vertex="1">
          <mxGeometry x="40" y="900" width="120" height="60" as="geometry" />
        </mxCell>
        <mxCell id="rQ5N3RbR9E7FUs8ajaMf-14" style="edgeStyle=orthogonalEdgeStyle;rounded=0;orthogonalLoop=1;jettySize=auto;html=1;exitX=1;exitY=0.5;exitDx=0;exitDy=0;entryX=0;entryY=0.5;entryDx=0;entryDy=0;" parent="1" source="rQ5N3RbR9E7FUs8ajaMf-10" target="rQ5N3RbR9E7FUs8ajaMf-13" edge="1">
          <mxGeometry relative="1" as="geometry" />
        </mxCell>
        <mxCell id="rQ5N3RbR9E7FUs8ajaMf-10" value="Image &amp;amp;&lt;br&gt;Text" style="shape=parallelogram;html=1;strokeWidth=1;perimeter=parallelogramPerimeter;whiteSpace=wrap;rounded=1;arcSize=12;size=0.23;strokeColor=default;align=center;verticalAlign=middle;fontFamily=Helvetica;fontSize=12;fontColor=default;fillColor=default;" parent="1" vertex="1">
          <mxGeometry x="220" y="900" width="120" height="60" as="geometry" />
        </mxCell>
        <mxCell id="rQ5N3RbR9E7FUs8ajaMf-16" style="edgeStyle=orthogonalEdgeStyle;rounded=0;orthogonalLoop=1;jettySize=auto;html=1;exitX=1;exitY=0.5;exitDx=0;exitDy=0;entryX=0;entryY=0.5;entryDx=0;entryDy=0;" parent="1" source="rQ5N3RbR9E7FUs8ajaMf-13" target="rQ5N3RbR9E7FUs8ajaMf-15" edge="1">
          <mxGeometry relative="1" as="geometry" />
        </mxCell>
        <mxCell id="rQ5N3RbR9E7FUs8ajaMf-13" value="Text Encoder &amp;amp; Visual Encoder" style="rounded=1;whiteSpace=wrap;html=1;absoluteArcSize=1;arcSize=14;strokeWidth=1;strokeColor=default;align=center;verticalAlign=middle;fontFamily=Helvetica;fontSize=12;fontColor=default;fillColor=default;" parent="1" vertex="1">
          <mxGeometry x="400" y="900" width="120" height="60" as="geometry" />
        </mxCell>
        <mxCell id="rQ5N3RbR9E7FUs8ajaMf-18" style="edgeStyle=orthogonalEdgeStyle;rounded=0;orthogonalLoop=1;jettySize=auto;html=1;exitX=1;exitY=0.5;exitDx=0;exitDy=0;entryX=0;entryY=0.5;entryDx=0;entryDy=0;" parent="1" source="rQ5N3RbR9E7FUs8ajaMf-15" target="rQ5N3RbR9E7FUs8ajaMf-17" edge="1">
          <mxGeometry relative="1" as="geometry" />
        </mxCell>
        <mxCell id="rQ5N3RbR9E7FUs8ajaMf-15" value="Text&lt;br&gt;Embedding&lt;br&gt;&amp;nbsp;&amp;amp; Image&lt;br&gt;Embedding" style="shape=parallelogram;html=1;strokeWidth=1;perimeter=parallelogramPerimeter;whiteSpace=wrap;rounded=1;arcSize=12;size=0.23;strokeColor=default;align=center;verticalAlign=middle;fontFamily=Helvetica;fontSize=12;fontColor=default;fillColor=default;" parent="1" vertex="1">
          <mxGeometry x="580" y="900" width="120" height="60" as="geometry" />
        </mxCell>
        <mxCell id="rQ5N3RbR9E7FUs8ajaMf-20" style="edgeStyle=orthogonalEdgeStyle;rounded=0;orthogonalLoop=1;jettySize=auto;html=1;exitX=1;exitY=0.5;exitDx=0;exitDy=0;entryX=0;entryY=0.5;entryDx=0;entryDy=0;" parent="1" source="rQ5N3RbR9E7FUs8ajaMf-17" target="rQ5N3RbR9E7FUs8ajaMf-42" edge="1">
          <mxGeometry relative="1" as="geometry">
            <mxPoint x="940" y="930" as="targetPoint" />
          </mxGeometry>
        </mxCell>
        <mxCell id="rQ5N3RbR9E7FUs8ajaMf-17" value="Retriver Module" style="rounded=1;whiteSpace=wrap;html=1;absoluteArcSize=1;arcSize=14;strokeWidth=1;strokeColor=default;align=center;verticalAlign=middle;fontFamily=Helvetica;fontSize=12;fontColor=default;fillColor=default;" parent="1" vertex="1">
          <mxGeometry x="760" y="900" width="120" height="60" as="geometry" />
        </mxCell>
        <mxCell id="rQ5N3RbR9E7FUs8ajaMf-30" style="edgeStyle=orthogonalEdgeStyle;rounded=0;orthogonalLoop=1;jettySize=auto;html=1;exitX=1;exitY=0.5;exitDx=0;exitDy=0;entryX=0;entryY=0.5;entryDx=0;entryDy=0;" parent="1" source="rQ5N3RbR9E7FUs8ajaMf-25" target="rQ5N3RbR9E7FUs8ajaMf-29" edge="1">
          <mxGeometry relative="1" as="geometry" />
        </mxCell>
        <mxCell id="rQ5N3RbR9E7FUs8ajaMf-25" value="Large Language Model" style="rounded=1;whiteSpace=wrap;html=1;absoluteArcSize=1;arcSize=14;strokeWidth=1;strokeColor=default;align=center;verticalAlign=middle;fontFamily=Helvetica;fontSize=12;fontColor=default;fillColor=default;" parent="1" vertex="1">
          <mxGeometry x="1120" y="900" width="120" height="60" as="geometry" />
        </mxCell>
        <mxCell id="rQ5N3RbR9E7FUs8ajaMf-28" style="edgeStyle=orthogonalEdgeStyle;rounded=0;orthogonalLoop=1;jettySize=auto;html=1;exitX=0.5;exitY=0;exitDx=0;exitDy=0;entryX=0.5;entryY=1;entryDx=0;entryDy=0;" parent="1" source="rQ5N3RbR9E7FUs8ajaMf-27" target="rQ5N3RbR9E7FUs8ajaMf-17" edge="1">
          <mxGeometry relative="1" as="geometry" />
        </mxCell>
        <mxCell id="rQ5N3RbR9E7FUs8ajaMf-27" value="DB" style="shape=internalStorage;whiteSpace=wrap;html=1;dx=15;dy=15;rounded=1;arcSize=8;strokeWidth=1;strokeColor=default;align=center;verticalAlign=middle;fontFamily=Helvetica;fontSize=12;fontColor=default;fillColor=default;" parent="1" vertex="1">
          <mxGeometry x="760" y="1020" width="120" height="60" as="geometry" />
        </mxCell>
        <mxCell id="rQ5N3RbR9E7FUs8ajaMf-29" value="Respon" style="shape=parallelogram;html=1;strokeWidth=1;perimeter=parallelogramPerimeter;whiteSpace=wrap;rounded=1;arcSize=12;size=0.23;strokeColor=default;align=center;verticalAlign=middle;fontFamily=Helvetica;fontSize=12;fontColor=default;fillColor=default;" parent="1" vertex="1">
          <mxGeometry x="1300" y="900" width="120" height="60" as="geometry" />
        </mxCell>
        <mxCell id="rQ5N3RbR9E7FUs8ajaMf-31" value="Selesai" style="strokeWidth=1;html=1;shape=mxgraph.flowchart.terminator;whiteSpace=wrap;rounded=1;strokeColor=default;align=center;verticalAlign=middle;arcSize=14;fontFamily=Helvetica;fontSize=12;fontColor=default;fillColor=default;" parent="1" vertex="1">
          <mxGeometry x="1480" y="900" width="120" height="60" as="geometry" />
        </mxCell>
        <mxCell id="rQ5N3RbR9E7FUs8ajaMf-32" style="edgeStyle=orthogonalEdgeStyle;rounded=0;orthogonalLoop=1;jettySize=auto;html=1;exitX=1;exitY=0.5;exitDx=0;exitDy=0;entryX=0;entryY=0.5;entryDx=0;entryDy=0;entryPerimeter=0;" parent="1" source="rQ5N3RbR9E7FUs8ajaMf-29" target="rQ5N3RbR9E7FUs8ajaMf-31" edge="1">
          <mxGeometry relative="1" as="geometry" />
        </mxCell>
        <mxCell id="rQ5N3RbR9E7FUs8ajaMf-44" style="edgeStyle=orthogonalEdgeStyle;rounded=0;orthogonalLoop=1;jettySize=auto;html=1;exitX=1;exitY=0.5;exitDx=0;exitDy=0;entryX=0;entryY=0.5;entryDx=0;entryDy=0;" parent="1" source="rQ5N3RbR9E7FUs8ajaMf-42" target="rQ5N3RbR9E7FUs8ajaMf-25" edge="1">
          <mxGeometry relative="1" as="geometry" />
        </mxCell>
        <mxCell id="rQ5N3RbR9E7FUs8ajaMf-42" value="Caption Image,&lt;br&gt;Text &amp;amp;&lt;br&gt;Document" style="shape=parallelogram;html=1;strokeWidth=1;perimeter=parallelogramPerimeter;whiteSpace=wrap;rounded=1;arcSize=12;size=0.23;strokeColor=default;align=center;verticalAlign=middle;fontFamily=Helvetica;fontSize=12;fontColor=default;fillColor=default;" parent="1" vertex="1">
          <mxGeometry x="930" y="900" width="120" height="60" as="geometry" />
        </mxCell>
        <mxCell id="xQwfj14qyGT05TzgVaLt-1" style="edgeStyle=orthogonalEdgeStyle;rounded=0;orthogonalLoop=1;jettySize=auto;html=1;exitX=1;exitY=0.5;exitDx=0;exitDy=0;exitPerimeter=0;entryX=0;entryY=0.5;entryDx=0;entryDy=0;" edge="1" parent="1" source="xQwfj14qyGT05TzgVaLt-2" target="xQwfj14qyGT05TzgVaLt-4">
          <mxGeometry relative="1" as="geometry" />
        </mxCell>
        <mxCell id="xQwfj14qyGT05TzgVaLt-2" value="Mulai" style="strokeWidth=1;html=1;shape=mxgraph.flowchart.terminator;whiteSpace=wrap;rounded=1;strokeColor=default;align=center;verticalAlign=middle;arcSize=14;fontFamily=Helvetica;fontSize=12;fontColor=default;fillColor=default;" vertex="1" parent="1">
          <mxGeometry x="40" y="1220" width="120" height="60" as="geometry" />
        </mxCell>
        <mxCell id="xQwfj14qyGT05TzgVaLt-3" style="edgeStyle=orthogonalEdgeStyle;rounded=0;orthogonalLoop=1;jettySize=auto;html=1;exitX=1;exitY=0.5;exitDx=0;exitDy=0;entryX=0;entryY=0.5;entryDx=0;entryDy=0;" edge="1" parent="1" source="xQwfj14qyGT05TzgVaLt-4" target="xQwfj14qyGT05TzgVaLt-6">
          <mxGeometry relative="1" as="geometry" />
        </mxCell>
        <mxCell id="xQwfj14qyGT05TzgVaLt-4" value="Image &amp;amp;&lt;br&gt;Text" style="shape=parallelogram;html=1;strokeWidth=1;perimeter=parallelogramPerimeter;whiteSpace=wrap;rounded=1;arcSize=12;size=0.23;strokeColor=default;align=center;verticalAlign=middle;fontFamily=Helvetica;fontSize=12;fontColor=default;fillColor=default;" vertex="1" parent="1">
          <mxGeometry x="220" y="1220" width="120" height="60" as="geometry" />
        </mxCell>
        <mxCell id="xQwfj14qyGT05TzgVaLt-5" style="edgeStyle=orthogonalEdgeStyle;rounded=0;orthogonalLoop=1;jettySize=auto;html=1;exitX=1;exitY=0.5;exitDx=0;exitDy=0;entryX=0;entryY=0.5;entryDx=0;entryDy=0;" edge="1" parent="1" source="xQwfj14qyGT05TzgVaLt-6" target="xQwfj14qyGT05TzgVaLt-8">
          <mxGeometry relative="1" as="geometry" />
        </mxCell>
        <mxCell id="xQwfj14qyGT05TzgVaLt-6" value="Text Encoder &amp;amp; Visual Encoder" style="rounded=1;whiteSpace=wrap;html=1;absoluteArcSize=1;arcSize=14;strokeWidth=1;strokeColor=default;align=center;verticalAlign=middle;fontFamily=Helvetica;fontSize=12;fontColor=default;fillColor=default;" vertex="1" parent="1">
          <mxGeometry x="400" y="1220" width="120" height="60" as="geometry" />
        </mxCell>
        <mxCell id="xQwfj14qyGT05TzgVaLt-7" style="edgeStyle=orthogonalEdgeStyle;rounded=0;orthogonalLoop=1;jettySize=auto;html=1;exitX=1;exitY=0.5;exitDx=0;exitDy=0;entryX=0;entryY=0.5;entryDx=0;entryDy=0;" edge="1" parent="1" source="xQwfj14qyGT05TzgVaLt-8" target="xQwfj14qyGT05TzgVaLt-10">
          <mxGeometry relative="1" as="geometry" />
        </mxCell>
        <mxCell id="xQwfj14qyGT05TzgVaLt-8" value="Text&lt;br&gt;Embedding&lt;br&gt;&amp;nbsp;&amp;amp; Image&lt;br&gt;Embedding" style="shape=parallelogram;html=1;strokeWidth=1;perimeter=parallelogramPerimeter;whiteSpace=wrap;rounded=1;arcSize=12;size=0.23;strokeColor=default;align=center;verticalAlign=middle;fontFamily=Helvetica;fontSize=12;fontColor=default;fillColor=default;" vertex="1" parent="1">
          <mxGeometry x="580" y="1220" width="120" height="60" as="geometry" />
        </mxCell>
        <mxCell id="xQwfj14qyGT05TzgVaLt-9" style="edgeStyle=orthogonalEdgeStyle;rounded=0;orthogonalLoop=1;jettySize=auto;html=1;exitX=1;exitY=0.5;exitDx=0;exitDy=0;entryX=0;entryY=0.5;entryDx=0;entryDy=0;" edge="1" parent="1" source="xQwfj14qyGT05TzgVaLt-10" target="xQwfj14qyGT05TzgVaLt-19">
          <mxGeometry relative="1" as="geometry">
            <mxPoint x="940" y="1250" as="targetPoint" />
          </mxGeometry>
        </mxCell>
        <mxCell id="xQwfj14qyGT05TzgVaLt-10" value="Retriver Module" style="rounded=1;whiteSpace=wrap;html=1;absoluteArcSize=1;arcSize=14;strokeWidth=1;strokeColor=default;align=center;verticalAlign=middle;fontFamily=Helvetica;fontSize=12;fontColor=default;fillColor=default;" vertex="1" parent="1">
          <mxGeometry x="760" y="1220" width="120" height="60" as="geometry" />
        </mxCell>
        <mxCell id="xQwfj14qyGT05TzgVaLt-11" style="edgeStyle=orthogonalEdgeStyle;rounded=0;orthogonalLoop=1;jettySize=auto;html=1;exitX=1;exitY=0.5;exitDx=0;exitDy=0;entryX=0;entryY=0.5;entryDx=0;entryDy=0;" edge="1" parent="1" source="xQwfj14qyGT05TzgVaLt-12" target="xQwfj14qyGT05TzgVaLt-15">
          <mxGeometry relative="1" as="geometry" />
        </mxCell>
        <mxCell id="xQwfj14qyGT05TzgVaLt-12" value="Large Language Model" style="rounded=1;whiteSpace=wrap;html=1;absoluteArcSize=1;arcSize=14;strokeWidth=1;strokeColor=default;align=center;verticalAlign=middle;fontFamily=Helvetica;fontSize=12;fontColor=default;fillColor=default;" vertex="1" parent="1">
          <mxGeometry x="1120" y="1220" width="120" height="60" as="geometry" />
        </mxCell>
        <mxCell id="xQwfj14qyGT05TzgVaLt-13" style="edgeStyle=orthogonalEdgeStyle;rounded=0;orthogonalLoop=1;jettySize=auto;html=1;exitX=0.5;exitY=0;exitDx=0;exitDy=0;entryX=0.5;entryY=1;entryDx=0;entryDy=0;" edge="1" parent="1" source="xQwfj14qyGT05TzgVaLt-14" target="xQwfj14qyGT05TzgVaLt-10">
          <mxGeometry relative="1" as="geometry" />
        </mxCell>
        <mxCell id="xQwfj14qyGT05TzgVaLt-14" value="DB" style="shape=internalStorage;whiteSpace=wrap;html=1;dx=15;dy=15;rounded=1;arcSize=8;strokeWidth=1;strokeColor=default;align=center;verticalAlign=middle;fontFamily=Helvetica;fontSize=12;fontColor=default;fillColor=default;" vertex="1" parent="1">
          <mxGeometry x="760" y="1340" width="120" height="60" as="geometry" />
        </mxCell>
        <mxCell id="xQwfj14qyGT05TzgVaLt-15" value="Respon" style="shape=parallelogram;html=1;strokeWidth=1;perimeter=parallelogramPerimeter;whiteSpace=wrap;rounded=1;arcSize=12;size=0.23;strokeColor=default;align=center;verticalAlign=middle;fontFamily=Helvetica;fontSize=12;fontColor=default;fillColor=default;" vertex="1" parent="1">
          <mxGeometry x="1300" y="1220" width="120" height="60" as="geometry" />
        </mxCell>
        <mxCell id="xQwfj14qyGT05TzgVaLt-16" value="Selesai" style="strokeWidth=1;html=1;shape=mxgraph.flowchart.terminator;whiteSpace=wrap;rounded=1;strokeColor=default;align=center;verticalAlign=middle;arcSize=14;fontFamily=Helvetica;fontSize=12;fontColor=default;fillColor=default;" vertex="1" parent="1">
          <mxGeometry x="1480" y="1220" width="120" height="60" as="geometry" />
        </mxCell>
        <mxCell id="xQwfj14qyGT05TzgVaLt-17" style="edgeStyle=orthogonalEdgeStyle;rounded=0;orthogonalLoop=1;jettySize=auto;html=1;exitX=1;exitY=0.5;exitDx=0;exitDy=0;entryX=0;entryY=0.5;entryDx=0;entryDy=0;entryPerimeter=0;" edge="1" parent="1" source="xQwfj14qyGT05TzgVaLt-15" target="xQwfj14qyGT05TzgVaLt-16">
          <mxGeometry relative="1" as="geometry" />
        </mxCell>
        <mxCell id="xQwfj14qyGT05TzgVaLt-18" style="edgeStyle=orthogonalEdgeStyle;rounded=0;orthogonalLoop=1;jettySize=auto;html=1;exitX=1;exitY=0.5;exitDx=0;exitDy=0;entryX=0;entryY=0.5;entryDx=0;entryDy=0;" edge="1" parent="1" source="xQwfj14qyGT05TzgVaLt-19" target="xQwfj14qyGT05TzgVaLt-12">
          <mxGeometry relative="1" as="geometry" />
        </mxCell>
        <mxCell id="xQwfj14qyGT05TzgVaLt-19" value="Caption Image,&lt;br&gt;Text &amp;amp;&lt;br&gt;Document" style="shape=parallelogram;html=1;strokeWidth=1;perimeter=parallelogramPerimeter;whiteSpace=wrap;rounded=1;arcSize=12;size=0.23;strokeColor=default;align=center;verticalAlign=middle;fontFamily=Helvetica;fontSize=12;fontColor=default;fillColor=default;" vertex="1" parent="1">
          <mxGeometry x="930" y="1220" width="120" height="60" as="geometry" />
        </mxCell>
        <mxCell id="xQwfj14qyGT05TzgVaLt-24" style="edgeStyle=orthogonalEdgeStyle;rounded=0;orthogonalLoop=1;jettySize=auto;html=1;exitX=1;exitY=0.5;exitDx=0;exitDy=0;entryX=0;entryY=0.5;entryDx=0;entryDy=0;" edge="1" parent="1" source="xQwfj14qyGT05TzgVaLt-20" target="xQwfj14qyGT05TzgVaLt-22">
          <mxGeometry relative="1" as="geometry" />
        </mxCell>
        <mxCell id="xQwfj14qyGT05TzgVaLt-20" value="Image" style="shape=parallelogram;html=1;strokeWidth=1;perimeter=parallelogramPerimeter;whiteSpace=wrap;rounded=1;arcSize=12;size=0.23;strokeColor=default;align=center;verticalAlign=middle;fontFamily=Helvetica;fontSize=12;fontColor=default;fillColor=default;" vertex="1" parent="1">
          <mxGeometry x="160" y="400" width="120" height="60" as="geometry" />
        </mxCell>
        <mxCell id="xQwfj14qyGT05TzgVaLt-104" style="edgeStyle=orthogonalEdgeStyle;rounded=0;orthogonalLoop=1;jettySize=auto;html=1;exitX=1;exitY=0.5;exitDx=0;exitDy=0;endArrow=none;endFill=0;" edge="1" parent="1" source="xQwfj14qyGT05TzgVaLt-21">
          <mxGeometry relative="1" as="geometry">
            <mxPoint x="1009.9999999999998" y="550" as="targetPoint" />
          </mxGeometry>
        </mxCell>
        <mxCell id="xQwfj14qyGT05TzgVaLt-21" value="Prompt" style="shape=parallelogram;html=1;strokeWidth=1;perimeter=parallelogramPerimeter;whiteSpace=wrap;rounded=1;arcSize=12;size=0.23;strokeColor=default;align=center;verticalAlign=middle;fontFamily=Helvetica;fontSize=12;fontColor=default;fillColor=default;" vertex="1" parent="1">
          <mxGeometry x="860" y="640" width="120" height="60" as="geometry" />
        </mxCell>
        <mxCell id="xQwfj14qyGT05TzgVaLt-29" style="edgeStyle=orthogonalEdgeStyle;rounded=0;orthogonalLoop=1;jettySize=auto;html=1;exitX=1;exitY=0.5;exitDx=0;exitDy=0;entryX=0;entryY=0.5;entryDx=0;entryDy=0;" edge="1" parent="1" source="xQwfj14qyGT05TzgVaLt-22" target="xQwfj14qyGT05TzgVaLt-26">
          <mxGeometry relative="1" as="geometry" />
        </mxCell>
        <mxCell id="xQwfj14qyGT05TzgVaLt-22" value="&amp;nbsp;Visual Encoder" style="rounded=1;whiteSpace=wrap;html=1;absoluteArcSize=1;arcSize=14;strokeWidth=1;strokeColor=default;align=center;verticalAlign=middle;fontFamily=Helvetica;fontSize=12;fontColor=default;fillColor=default;" vertex="1" parent="1">
          <mxGeometry x="340" y="400" width="120" height="60" as="geometry" />
        </mxCell>
        <mxCell id="xQwfj14qyGT05TzgVaLt-33" style="edgeStyle=orthogonalEdgeStyle;rounded=0;orthogonalLoop=1;jettySize=auto;html=1;exitX=1;exitY=0.5;exitDx=0;exitDy=0;entryX=0;entryY=0.5;entryDx=0;entryDy=0;" edge="1" parent="1" source="xQwfj14qyGT05TzgVaLt-26" target="xQwfj14qyGT05TzgVaLt-32">
          <mxGeometry relative="1" as="geometry" />
        </mxCell>
        <mxCell id="xQwfj14qyGT05TzgVaLt-26" value="Image&lt;br&gt;Embedding" style="shape=parallelogram;html=1;strokeWidth=1;perimeter=parallelogramPerimeter;whiteSpace=wrap;rounded=1;arcSize=12;size=0.23;strokeColor=default;align=center;verticalAlign=middle;fontFamily=Helvetica;fontSize=12;fontColor=default;fillColor=default;" vertex="1" parent="1">
          <mxGeometry x="520" y="400" width="120" height="60" as="geometry" />
        </mxCell>
        <mxCell id="xQwfj14qyGT05TzgVaLt-107" style="edgeStyle=orthogonalEdgeStyle;rounded=0;orthogonalLoop=1;jettySize=auto;html=1;exitX=1;exitY=0.5;exitDx=0;exitDy=0;entryX=0;entryY=0.5;entryDx=0;entryDy=0;" edge="1" parent="1" source="xQwfj14qyGT05TzgVaLt-30" target="xQwfj14qyGT05TzgVaLt-105">
          <mxGeometry relative="1" as="geometry" />
        </mxCell>
        <mxCell id="xQwfj14qyGT05TzgVaLt-30" value="Retriver Module" style="rounded=1;whiteSpace=wrap;html=1;absoluteArcSize=1;arcSize=14;strokeWidth=1;strokeColor=default;align=center;verticalAlign=middle;fontFamily=Helvetica;fontSize=12;fontColor=default;fillColor=default;" vertex="1" parent="1">
          <mxGeometry x="1400" y="520" width="120" height="60" as="geometry" />
        </mxCell>
        <mxCell id="xQwfj14qyGT05TzgVaLt-41" style="edgeStyle=orthogonalEdgeStyle;rounded=0;orthogonalLoop=1;jettySize=auto;html=1;exitX=1;exitY=0.5;exitDx=0;exitDy=0;entryX=0;entryY=0.5;entryDx=0;entryDy=0;" edge="1" parent="1" source="xQwfj14qyGT05TzgVaLt-32" target="xQwfj14qyGT05TzgVaLt-38">
          <mxGeometry relative="1" as="geometry" />
        </mxCell>
        <mxCell id="xQwfj14qyGT05TzgVaLt-32" value="Retriver Module" style="rounded=1;whiteSpace=wrap;html=1;absoluteArcSize=1;arcSize=14;strokeWidth=1;strokeColor=default;align=center;verticalAlign=middle;fontFamily=Helvetica;fontSize=12;fontColor=default;fillColor=default;" vertex="1" parent="1">
          <mxGeometry x="680" y="400" width="120" height="60" as="geometry" />
        </mxCell>
        <mxCell id="xQwfj14qyGT05TzgVaLt-36" style="edgeStyle=orthogonalEdgeStyle;rounded=0;orthogonalLoop=1;jettySize=auto;html=1;exitX=0.5;exitY=1;exitDx=0;exitDy=0;entryX=0.5;entryY=0;entryDx=0;entryDy=0;" edge="1" parent="1" source="xQwfj14qyGT05TzgVaLt-34" target="xQwfj14qyGT05TzgVaLt-32">
          <mxGeometry relative="1" as="geometry" />
        </mxCell>
        <mxCell id="xQwfj14qyGT05TzgVaLt-34" value="&lt;br&gt;DB&lt;br&gt;Image" style="shape=internalStorage;whiteSpace=wrap;html=1;dx=15;dy=15;rounded=1;arcSize=8;strokeWidth=1;strokeColor=default;align=center;verticalAlign=middle;fontFamily=Helvetica;fontSize=12;fontColor=default;fillColor=default;" vertex="1" parent="1">
          <mxGeometry x="680" y="280" width="120" height="60" as="geometry" />
        </mxCell>
        <mxCell id="xQwfj14qyGT05TzgVaLt-103" style="edgeStyle=orthogonalEdgeStyle;rounded=0;orthogonalLoop=1;jettySize=auto;html=1;exitX=0.5;exitY=0;exitDx=0;exitDy=0;entryX=0.5;entryY=1;entryDx=0;entryDy=0;" edge="1" parent="1" source="xQwfj14qyGT05TzgVaLt-35" target="xQwfj14qyGT05TzgVaLt-30">
          <mxGeometry relative="1" as="geometry" />
        </mxCell>
        <mxCell id="xQwfj14qyGT05TzgVaLt-35" value="&lt;br&gt;DB&lt;br&gt;Document" style="shape=internalStorage;whiteSpace=wrap;html=1;dx=15;dy=15;rounded=1;arcSize=8;strokeWidth=1;strokeColor=default;align=center;verticalAlign=middle;fontFamily=Helvetica;fontSize=12;fontColor=default;fillColor=default;" vertex="1" parent="1">
          <mxGeometry x="1400" y="640" width="120" height="60" as="geometry" />
        </mxCell>
        <mxCell id="xQwfj14qyGT05TzgVaLt-95" style="edgeStyle=orthogonalEdgeStyle;rounded=0;orthogonalLoop=1;jettySize=auto;html=1;exitX=1;exitY=0.5;exitDx=0;exitDy=0;entryX=0;entryY=0.5;entryDx=0;entryDy=0;" edge="1" parent="1" source="xQwfj14qyGT05TzgVaLt-38" target="xQwfj14qyGT05TzgVaLt-97">
          <mxGeometry relative="1" as="geometry">
            <mxPoint x="1030" y="540" as="targetPoint" />
            <Array as="points">
              <mxPoint x="1010" y="430" />
              <mxPoint x="1010" y="550" />
            </Array>
          </mxGeometry>
        </mxCell>
        <mxCell id="xQwfj14qyGT05TzgVaLt-38" value="Caption Image" style="shape=parallelogram;html=1;strokeWidth=1;perimeter=parallelogramPerimeter;whiteSpace=wrap;rounded=1;arcSize=12;size=0.23;strokeColor=default;align=center;verticalAlign=middle;fontFamily=Helvetica;fontSize=12;fontColor=default;fillColor=default;" vertex="1" parent="1">
          <mxGeometry x="860" y="400" width="120" height="60" as="geometry" />
        </mxCell>
        <mxCell id="xQwfj14qyGT05TzgVaLt-101" style="edgeStyle=orthogonalEdgeStyle;rounded=0;orthogonalLoop=1;jettySize=auto;html=1;exitX=1;exitY=0.5;exitDx=0;exitDy=0;entryX=0;entryY=0.5;entryDx=0;entryDy=0;" edge="1" parent="1" source="xQwfj14qyGT05TzgVaLt-39" target="xQwfj14qyGT05TzgVaLt-30">
          <mxGeometry relative="1" as="geometry" />
        </mxCell>
        <mxCell id="xQwfj14qyGT05TzgVaLt-39" value="Query&lt;br&gt;Embedding" style="shape=parallelogram;html=1;strokeWidth=1;perimeter=parallelogramPerimeter;whiteSpace=wrap;rounded=1;arcSize=12;size=0.23;strokeColor=default;align=center;verticalAlign=middle;fontFamily=Helvetica;fontSize=12;fontColor=default;fillColor=default;" vertex="1" parent="1">
          <mxGeometry x="1220" y="520" width="120" height="60" as="geometry" />
        </mxCell>
        <mxCell id="xQwfj14qyGT05TzgVaLt-46" style="edgeStyle=orthogonalEdgeStyle;rounded=0;orthogonalLoop=1;jettySize=auto;html=1;exitX=1;exitY=0.5;exitDx=0;exitDy=0;entryX=0;entryY=0.5;entryDx=0;entryDy=0;" edge="1" parent="1" source="xQwfj14qyGT05TzgVaLt-42" target="xQwfj14qyGT05TzgVaLt-45">
          <mxGeometry relative="1" as="geometry" />
        </mxCell>
        <mxCell id="xQwfj14qyGT05TzgVaLt-42" value="Large Language Model" style="rounded=1;whiteSpace=wrap;html=1;absoluteArcSize=1;arcSize=14;strokeWidth=1;strokeColor=default;align=center;verticalAlign=middle;fontFamily=Helvetica;fontSize=12;fontColor=default;fillColor=default;" vertex="1" parent="1">
          <mxGeometry x="1760" y="520" width="120" height="60" as="geometry" />
        </mxCell>
        <mxCell id="xQwfj14qyGT05TzgVaLt-45" value="Respon" style="shape=parallelogram;html=1;strokeWidth=1;perimeter=parallelogramPerimeter;whiteSpace=wrap;rounded=1;arcSize=12;size=0.23;strokeColor=default;align=center;verticalAlign=middle;fontFamily=Helvetica;fontSize=12;fontColor=default;fillColor=default;" vertex="1" parent="1">
          <mxGeometry x="1940" y="520" width="120" height="60" as="geometry" />
        </mxCell>
        <mxCell id="xQwfj14qyGT05TzgVaLt-47" value="Text" style="shape=parallelogram;html=1;strokeWidth=1;perimeter=parallelogramPerimeter;whiteSpace=wrap;rounded=1;arcSize=12;size=0.23;strokeColor=default;align=center;verticalAlign=middle;fontFamily=Helvetica;fontSize=12;fontColor=default;fillColor=default;" vertex="1" parent="1">
          <mxGeometry x="1790" y="820" width="120" height="60" as="geometry" />
        </mxCell>
        <mxCell id="xQwfj14qyGT05TzgVaLt-100" style="edgeStyle=orthogonalEdgeStyle;rounded=0;orthogonalLoop=1;jettySize=auto;html=1;exitX=1;exitY=0.5;exitDx=0;exitDy=0;entryX=0;entryY=0.5;entryDx=0;entryDy=0;" edge="1" parent="1" source="xQwfj14qyGT05TzgVaLt-97" target="xQwfj14qyGT05TzgVaLt-39">
          <mxGeometry relative="1" as="geometry" />
        </mxCell>
        <mxCell id="xQwfj14qyGT05TzgVaLt-97" value="Text Encoder" style="rounded=1;whiteSpace=wrap;html=1;absoluteArcSize=1;arcSize=14;strokeWidth=1;strokeColor=default;align=center;verticalAlign=middle;fontFamily=Helvetica;fontSize=12;fontColor=default;fillColor=default;" vertex="1" parent="1">
          <mxGeometry x="1040" y="520" width="120" height="60" as="geometry" />
        </mxCell>
        <mxCell id="xQwfj14qyGT05TzgVaLt-106" style="edgeStyle=orthogonalEdgeStyle;rounded=0;orthogonalLoop=1;jettySize=auto;html=1;exitX=1;exitY=0.5;exitDx=0;exitDy=0;entryX=0;entryY=0.5;entryDx=0;entryDy=0;" edge="1" parent="1" source="xQwfj14qyGT05TzgVaLt-105" target="xQwfj14qyGT05TzgVaLt-42">
          <mxGeometry relative="1" as="geometry" />
        </mxCell>
        <mxCell id="xQwfj14qyGT05TzgVaLt-105" value="Dokumen" style="shape=parallelogram;html=1;strokeWidth=1;perimeter=parallelogramPerimeter;whiteSpace=wrap;rounded=1;arcSize=12;size=0.23;strokeColor=default;align=center;verticalAlign=middle;fontFamily=Helvetica;fontSize=12;fontColor=default;fillColor=default;" vertex="1" parent="1">
          <mxGeometry x="1580" y="520" width="120" height="60" as="geometry" />
        </mxCell>
        <mxCell id="xQwfj14qyGT05TzgVaLt-111" style="edgeStyle=orthogonalEdgeStyle;rounded=0;orthogonalLoop=1;jettySize=auto;html=1;exitX=1;exitY=0.5;exitDx=0;exitDy=0;endArrow=none;endFill=0;" edge="1" parent="1" source="xQwfj14qyGT05TzgVaLt-108">
          <mxGeometry relative="1" as="geometry">
            <mxPoint x="1730" y="550" as="targetPoint" />
          </mxGeometry>
        </mxCell>
        <mxCell id="xQwfj14qyGT05TzgVaLt-108" value="Prompt" style="shape=parallelogram;html=1;strokeWidth=1;perimeter=parallelogramPerimeter;whiteSpace=wrap;rounded=1;arcSize=12;size=0.23;strokeColor=default;align=center;verticalAlign=middle;fontFamily=Helvetica;fontSize=12;fontColor=default;fillColor=default;" vertex="1" parent="1">
          <mxGeometry x="1580" y="640" width="120" height="60" as="geometry" />
        </mxCell>
        <mxCell id="xQwfj14qyGT05TzgVaLt-110" style="edgeStyle=orthogonalEdgeStyle;rounded=0;orthogonalLoop=1;jettySize=auto;html=1;exitX=1;exitY=0.5;exitDx=0;exitDy=0;endArrow=none;endFill=0;" edge="1" parent="1" source="xQwfj14qyGT05TzgVaLt-109">
          <mxGeometry relative="1" as="geometry">
            <mxPoint x="1730" y="550" as="targetPoint" />
          </mxGeometry>
        </mxCell>
        <mxCell id="xQwfj14qyGT05TzgVaLt-109" value="Caption Image" style="shape=parallelogram;html=1;strokeWidth=1;perimeter=parallelogramPerimeter;whiteSpace=wrap;rounded=1;arcSize=12;size=0.23;strokeColor=default;align=center;verticalAlign=middle;fontFamily=Helvetica;fontSize=12;fontColor=default;fillColor=default;" vertex="1" parent="1">
          <mxGeometry x="1590" y="400" width="120" height="60" as="geometry" />
        </mxCell>
      </root>
    </mxGraphModel>
  </diagram>
</mxfile>
